<?xml version="1.0" encoding="UTF-8"?>
<svg height="600" width="800" xmlns="http://www.w3.org/2000/svg" xmlns:xlink="http://www.w3.org/1999/xlink">
    <style>
        
    </style>
    <g id="Notes" font-family="'LucidaGrande', 'Lucida Grande', sans-serif" font-size="13">
        <rect fill="white" height="600.0" width="800.0" x="0.0" y="0.0" />
        <g font-size="13">
            <text x="18.0" y="176.0">Small</text>
            <text x="18.0" y="376.0">Medium</text>
            <text x="18.0" y="576.0">Large</text>
        </g>
        <g font-size="9">
            <text x="250.0" y="30.0">Ultralight</text>
            <text x="450.0" y="30.0">Regular</text>
            <text x="650.0" y="30.0">Black</text>
            <text id="template-version" fill="#505050" text-anchor="end" x="785.0" y="575.0">Template v.3.0</text>
            <a href="https://github.com/swhitty/SwiftDraw">
                <text fill="#505050" text-anchor="end" x="785.0" y="590.0">https://github.com/swhitty/SwiftDraw</text>
            </a>
        </g>
    </g>
    <g id="Guides" stroke="rgb(39, 170, 225)" stroke-width="0.5">
        <path id="Capline-S" d="M18,76 l800,0" />
        <path id="H-reference" d="M85,145.8 L87.7,145.8 L113.4,79.3 L114.1,79.3 L114.1,76 L112.1,76 L85,145.8 Z M95.7,121.5 L131,121.5 L130.3,119.3 L96.5,119.3 L95.7,121.5 Z M139.1,145.8 L141.8,145.8 L114.6,76 L113.5,76 L113.5,79.3 L139.1,145.8 Z" stroke="none" />
        <path id="Baseline-S" d="M18,146 l800,0" />
        <path id="left-margin-Ultralight-S" d="M211,56 l0,110" />
        <path id="right-margin-Ultralight-S" d="M319,56 l0,110" />
        <path id="left-margin-Regular-S" d="M411,56 l0,110" />
        <path id="right-margin-Regular-S" d="M519,56 l0,110" />
        <path id="left-margin-Black-S" d="M611,56 l0,110" />
        <path id="right-margin-Black-S" d="M719,56 l0,110" />
        <path id="Capline-M" d="M18,276 l800,0" />
        <path id="Baseline-M" d="M18,346 l800,0" />
        <path id="Capline-L" d="M18,476 l800,0" />
        <path id="Baseline-L" d="M18,546 l800,0" />
    </g>
    <g id="Symbols">
        <g id="Ultralight-S">
            <path class="monochrome-0 multicolor-0:tintColor hierarchical-0:primary" d="M292.1,118.9 C292.1,120.1 293.2,120.5 294.2,120 L308.2,112.3 C309.3,111.7 309.2,110.4 308.2,109.8 L294.1,102.1 C293.2,101.6 292.1,101.9 292.1,103.1 Z" />
            <path class="monochrome-1 multicolor-1:tintColor hierarchical-1:primary" d="M279.1,128.5 C279.8,128.5 280.2,128.1 280.2,127.5 L280.2,94.5 C280.2,93.9 279.8,93.5 279.1,93.5 C278.4,93.5 277.9,93.9 277.9,94.5 L277.9,127.5 C277.9,128.1 278.4,128.5 279.1,128.5 Z" />
            <path class="monochrome-2 multicolor-2:tintColor hierarchical-2:primary" d="M265,139.2 C265.7,139.2 266.1,138.8 266.1,138.2 L266.1,83.8 C266.1,83.2 265.7,82.8 265,82.8 C264.3,82.8 263.9,83.2 263.9,83.8 L263.9,138.2 C263.9,138.8 264.3,139.2 265,139.2 Z" />
            <path class="monochrome-3 multicolor-3:tintColor hierarchical-3:primary" d="M250.9,128.5 C251.6,128.5 252.1,128.1 252.1,127.5 L252.1,94.5 C252.1,93.9 251.6,93.5 250.9,93.5 C250.3,93.5 249.8,93.9 249.8,94.5 L249.8,127.5 C249.8,128.1 250.3,128.5 250.9,128.5 Z" />
            <path class="monochrome-4 multicolor-4:tintColor hierarchical-4:primary" d="M237.9,118.9 L237.9,103.1 C237.9,101.9 236.8,101.6 235.9,102.1 L221.8,109.8 C220.8,110.4 220.7,111.7 221.8,112.3 L235.8,120 C236.8,120.5 237.9,120.1 237.9,118.9 Z" />
        </g>
        <g id="Regular-S">
            <path class="monochrome-0 multicolor-0:tintColor hierarchical-0:primary" d="M492.2,118.8 C492.2,120.8 493.8,121.7 495.5,120.6 L507.7,113.1 C509.4,112 509.4,110 507.7,108.9 L495.5,101.4 C493.8,100.2 492.2,101.2 492.2,103.2 Z" />
            <path class="monochrome-1 multicolor-1:tintColor hierarchical-1:primary" d="M480.2,131.4 C481.9,131.4 483.3,130 483.3,128.2 L483.3,93.9 C483.3,92 481.9,90.6 480.2,90.6 C478.4,90.6 477,92 477,93.9 L477,128.2 C477,130 478.4,131.4 480.2,131.4 Z" />
            <path class="monochrome-2 multicolor-2:tintColor hierarchical-2:primary" d="M465,144.3 C466.7,144.3 468.1,142.9 468.1,141.2 L468.1,81 C468.1,79.1 466.7,77.7 465,77.7 C463.2,77.7 461.9,79.1 461.9,81 L461.9,141.2 C461.9,142.9 463.2,144.3 465,144.3 Z" />
            <path class="monochrome-3 multicolor-3:tintColor hierarchical-3:primary" d="M449.8,131.4 C451.6,131.4 453,130 453,128.2 L453,93.9 C453,92 451.6,90.6 449.8,90.6 C448,90.6 446.6,92 446.6,93.9 L446.6,128.2 C446.6,130 448,131.4 449.8,131.4 Z" />
            <path class="monochrome-4 multicolor-4:tintColor hierarchical-4:primary" d="M437.8,118.8 L437.8,103.2 C437.8,101.2 436.2,100.2 434.4,101.4 L422.3,108.9 C420.6,110 420.6,112 422.3,113.1 L434.4,120.6 C436.2,121.7 437.8,120.8 437.8,118.8 Z" />
        </g>
        <g id="Black-S">
            <path class="monochrome-0 multicolor-0:tintColor hierarchical-0:primary" d="M691,117.9 C691,120.5 693.5,121.6 695.7,120.4 L707.4,113.6 C709.5,112.4 709.5,109.6 707.4,108.4 L695.7,101.6 C693.5,100.3 691,101.5 691,104.1 Z" />
            <path class="monochrome-1 multicolor-1:tintColor hierarchical-1:primary" d="M679.7,131.3 C681.6,131.3 683.1,129.8 683.1,127.9 L683.1,94.1 C683.1,92.2 681.6,90.7 679.7,90.7 C677.8,90.7 676.3,92.2 676.3,94.1 L676.3,127.9 C676.3,129.8 677.8,131.3 679.7,131.3 Z" />
            <path class="monochrome-2 multicolor-2:tintColor hierarchical-2:primary" d="M665,141.6 C666.9,141.6 668.4,140.2 668.4,138.3 L668.4,83.7 C668.4,81.9 666.9,80.4 665,80.4 C663.1,80.4 661.6,81.9 661.6,83.7 L661.6,138.3 C661.6,140.2 663.1,141.6 665,141.6 Z" />
            <path class="monochrome-3 multicolor-3:tintColor hierarchical-3:primary" d="M650.3,131.3 C652.2,131.3 653.7,129.8 653.7,127.9 L653.7,94.1 C653.7,92.2 652.2,90.7 650.3,90.7 C648.4,90.7 646.9,92.2 646.9,94.1 L646.9,127.9 C646.9,129.8 648.4,131.3 650.3,131.3 Z" />
            <path class="monochrome-4 multicolor-4:tintColor hierarchical-4:primary" d="M639,117.9 L639,104.1 C639,101.5 636.5,100.3 634.3,101.6 L622.6,108.4 C620.5,109.6 620.5,112.4 622.6,113.6 L634.3,120.4 C636.5,121.6 639,120.5 639,117.9 Z" />
        </g>
    </g>
</svg>